<svg version="1.0" xmlns="http://www.w3.org/2000/svg" width="32.000000pt" height="32.000000pt" viewBox="0 0 300.000000 300.000000" preserveAspectRatio="xMidYMid meet">
  <g transform="translate(0.000000,300.000000) scale(0.100000,-0.100000)" fill="#a855f7" stroke="none">
    <path d="M913 2296 c-17 -14 -40 -45 -51 -69 -28 -60 -60 -72 -189 -69 -110 3 -157 -9 -201 -51 -36 -33 -51 -68 -58 -138 -12 -124 41 -256 143 -349 41 -38 61 -48 99 -54 97 -13 242 -6 392 19 l42 8 0 -47 c0 -35 -7 -56 -29 -87 -30 -41 -60 -143 -47 -157 4 -4 19 7 32 23 l24 30 0 -47 c0 -49 14 -64 25 -29 3 11 12 24 19 30 10 8 11 -2 8 -48 -5 -69 9 -85 39 -47 28 35 39 33 39 -8 0 -44 17 -89 30 -81 5 3 10 17 10 31 0 54 52 5 74 -69 9 -31 21 -59 26 -62 33 -20 28 -41 -25 -110 -53 -68 -55 -69 -95 -66 -51 3 -93 -21 -88 -52 2 -15 11 -23 28 -25 13 -2 29 -11 35 -19 17 -22 226 -14 273 10 31 17 32 20 32 76 0 56 2 60 38 87 32 25 46 29 99 29 78 0 80 -11 14 -71 -28 -25 -53 -54 -56 -64 -4 -11 -14 -20 -24 -20 -25 0 -41 -20 -41 -52 0 -28 0 -28 70 -28 54 0 70 -3 70 -14 0 -25 21 -29 49 -9 36 27 130 36 154 15 16 -14 19 -14 33 0 19 19 9 64 -17 79 -29 15 -24 69 12 128 29 46 37 76 28 109 -3 8 16 19 46 30 74 26 143 69 207 130 75 71 108 124 158 254 48 125 114 230 193 309 32 31 57 59 57 62 0 2 -15 12 -34 21 -92 44 -168 6 -341 -170 -103 -104 -138 -134 -170 -143 -61 -17 -74 -14 -121 27 -62 56 -145 96 -263 131 -184 53 -233 105 -255 272 -15 107 -97 222 -210 297 -51 33 -102 42 -124 20 -9 -9 -18 -6 -40 15 -42 40 -82 44 -119 13z m121 -46 c20 -23 44 -56 53 -75 16 -34 33 -46 33 -24 0 7 -9 27 -21 46 -64 104 69 67 183 -51 44 -45 73 -95 94 -164 13 -45 13 -47 -17 -94 -35 -54 -48 -120 -29 -143 15 -18 54 -19 98 -4 26 9 35 8 56 -8 21 -16 24 -28 28 -90 4 -78 23 -113 63 -113 25 0 88 64 100 100 4 14 12 19 22 16 8 -3 25 -9 38 -12 21 -5 23 -10 21 -74 -1 -54 3 -72 18 -89 27 -30 75 -27 122 7 44 31 46 31 123 -26 48 -35 91 -41 111 -16 8 8 13 38 12 67 -1 67 15 87 67 80 46 -6 54 3 61 72 l5 50 44 0 c49 1 71 21 71 66 0 24 6 29 50 44 48 16 110 13 110 -4 0 -4 -9 -16 -21 -27 -77 -69 -170 -218 -215 -344 -37 -104 -84 -178 -155 -244 -84 -78 -255 -157 -274 -126 -3 5 5 34 18 63 29 60 44 127 29 127 -5 0 -13 -15 -16 -32 -17 -93 -104 -212 -172 -238 -36 -14 -144 -12 -173 3 -73 37 -93 153 -56 325 5 19 4 32 -2 32 -15 0 -36 -106 -36 -181 l0 -67 -51 12 c-54 13 -78 24 -138 64 -36 23 -37 25 -24 51 23 43 50 61 105 70 60 9 88 32 96 75 7 36 -15 108 -35 114 -9 3 -11 -1 -5 -14 27 -65 29 -93 8 -121 -15 -21 -32 -30 -67 -35 -65 -9 -93 -31 -122 -91 l-24 -52 0 42 c0 23 4 53 10 67 14 38 -3 32 -49 -16 l-40 -43 -1 38 c0 86 53 137 144 137 25 0 46 2 46 4 0 2 -7 17 -15 32 -10 19 -13 42 -9 67 3 21 2 37 -4 37 -14 0 -22 -54 -13 -88 9 -29 8 -30 -36 -35 -25 -2 -58 -14 -74 -26 -15 -12 -30 -21 -33 -21 -7 0 -26 89 -35 163 l-8 68 34 14 c82 34 133 102 133 176 0 46 -15 106 -31 123 -17 19 -19 -2 -4 -37 23 -55 19 -127 -8 -168 -60 -90 -212 -125 -524 -120 l-82 1 -58 55 c-36 34 -52 54 -42 55 9 0 24 -11 33 -25 21 -32 42 -32 59 1 l14 26 16 -26 c22 -33 45 -33 57 -1 5 14 13 25 18 25 5 0 14 -11 20 -25 19 -42 72 -27 72 21 0 17 9 25 34 34 18 6 51 26 73 45 22 19 43 31 47 28 3 -3 6 0 6 8 0 16 -19 39 -31 39 -4 0 -5 -9 -2 -20 6 -24 -67 -73 -147 -98 -70 -21 -269 -23 -293 -3 -31 25 -57 117 -57 202 0 98 17 140 73 177 38 25 49 27 161 29 184 3 173 0 202 63 34 73 51 90 89 90 25 0 41 -9 69 -40z m390 -452 c22 -31 21 -35 -17 -47 -71 -24 -91 13 -51 97 l27 57 13 -42 c7 -24 20 -53 28 -65z m942 -64 c-3 -8 -18 -14 -33 -14 l-27 0 30 31 c23 24 30 27 32 14 2 -9 1 -23 -2 -31z m-1566 -32 c0 -5 -7 -17 -15 -28 -15 -19 -15 -19 -30 0 -8 10 -12 23 -9 27 7 11 54 12 54 1z m-200 -15 c0 -21 -12 -28 -27 -16 -19 16 -16 29 7 29 11 0 20 -6 20 -13z m90 0 c0 -21 -12 -28 -27 -16 -19 16 -16 29 7 29 11 0 20 -6 20 -13z m960 -27 c20 0 20 -1 4 -32 -37 -73 -91 -101 -113 -59 -14 25 -25 97 -18 115 5 12 13 12 57 -5 27 -10 59 -19 70 -19z m606 -34 c-6 -26 -28 -38 -52 -29 -12 5 -9 12 18 40 33 34 45 31 34 -11z m-390 -62 c54 -36 54 -37 37 -56 -19 -21 -65 -48 -83 -48 -27 0 -50 41 -50 88 0 75 6 76 96 16z m264 -68 c0 -39 -25 -70 -49 -61 -9 3 -30 16 -48 28 l-32 22 37 11 c21 6 47 16 57 22 31 18 35 15 35 -22z m-1020 -161 c-20 -19 -20 -19 -20 20 l0 38 -26 -24 -27 -24 7 30 c4 17 17 45 29 62 l22 33 17 -58 c17 -55 17 -58 -2 -77z m325 -242 c40 -5 48 -10 60 -39 8 -19 25 -45 39 -57 l26 -24 -40 -32 c-38 -30 -40 -35 -40 -86 0 -70 -17 -82 -125 -91 l-80 -6 -12 31 c-6 17 -7 31 -3 31 5 0 38 37 73 82 l64 82 -28 40 c-16 23 -32 56 -35 75 l-7 33 31 -16 c18 -9 52 -19 77 -23z m475 -98 c0 -11 -13 -42 -30 -68 -20 -32 -30 -61 -30 -87 0 -21 -5 -42 -10 -45 -6 -4 -10 -16 -8 -28 4 -33 -34 -34 -66 -3 -32 33 -60 33 -74 1 -9 -18 -19 -25 -41 -25 -25 0 -29 4 -34 33 -5 36 22 81 73 117 19 13 30 30 30 45 0 18 11 28 43 44 24 12 56 34 72 51 l29 30 23 -22 c13 -12 23 -31 23 -43z m-692 -181 c-8 -9 -26 -14 -39 -12 l-24 5 25 11 c14 6 32 11 40 11 12 1 12 -2 -2 -15z m32 -40 c0 -16 -18 -18 -39 -5 -11 7 -10 11 5 19 21 12 34 7 34 -14z m350 -14 c0 -11 -6 -20 -14 -20 -18 0 -29 16 -21 30 11 18 35 11 35 -10z m147 -5 c3 -11 -36 -39 -44 -31 -3 2 -2 14 2 26 7 21 35 25 42 5z"/>
    <path d="M904 2111 c-60 -26 -83 -114 -44 -164 69 -87 207 -24 186 85 -12 63 -85 103 -142 79z m90 -43 c23 -38 -35 -78 -61 -42 -17 23 -16 29 3 49 20 19 43 16 58 -7z m-66 -86 c3 -17 -2 -22 -18 -22 -25 0 -38 29 -19 41 20 13 34 6 37 -19z m82 -11 c0 -12 -46 -41 -54 -34 -8 9 24 43 41 43 7 0 13 -4 13 -9z"/>
    <path d="M551 2024 c-26 -33 -35 -65 -26 -93 16 -52 69 -2 69 66 1 55 -14 64 -43 27z m39 -14 c0 -26 -27 -80 -40 -80 -16 0 -12 53 6 78 19 28 34 28 34 2z"/>
  </g>
</svg>
